# Blender v2.78 (sub 0) OBJ File: 'Basic Tower.blend'
# www.blender.org
mtllib Basic Tower.mtl
o Icosphere
v 0.000000 3.365138 0.000000
v 0.556602 3.790339 0.404390
v -0.212599 3.790339 0.654323
v -0.687996 3.790342 0.000000
v -0.212599 3.790339 -0.654323
v 0.556602 3.790339 -0.404390
v 0.212599 4.478345 0.654323
v -0.556602 4.478345 0.404390
v -0.556602 4.478345 -0.404390
v 0.212599 4.478345 -0.654323
v 0.687996 4.478342 0.000000
v 0.000000 4.903545 0.000000
v -0.124961 3.480015 0.384598
v 0.327160 3.480015 0.237693
v 0.202200 3.729942 0.622295
v 0.654322 3.729944 0.000000
v 0.327160 3.480015 -0.237693
v -0.404393 3.480017 0.000000
v -0.529358 3.729943 0.384600
v -0.124961 3.480015 -0.384598
v -0.529358 3.729943 -0.384600
v 0.202200 3.729942 -0.622295
v 0.731557 4.134342 0.237694
v 0.731557 4.134342 -0.237694
v 0.000000 4.134342 0.769204
v 0.452127 4.134342 0.622299
v -0.731557 4.134342 0.237694
v -0.452127 4.134342 0.622299
v -0.452127 4.134342 -0.622299
v -0.731557 4.134342 -0.237694
v 0.452127 4.134342 -0.622299
v 0.000000 4.134342 -0.769204
v 0.529358 4.538740 0.384600
v -0.202200 4.538741 0.622295
v -0.654322 4.538740 0.000000
v -0.202200 4.538741 -0.622295
v 0.529358 4.538740 -0.384600
v 0.124961 4.788669 0.384598
v 0.404393 4.788666 0.000000
v -0.327160 4.788668 0.237693
v -0.327160 4.788668 -0.237693
v 0.124961 4.788669 -0.384598
vn 0.1024 -0.9435 0.3151
vn 0.7002 -0.6617 0.2680
vn -0.2680 -0.9435 0.1947
vn -0.2680 -0.9435 -0.1947
vn 0.1024 -0.9435 -0.3151
vn 0.9050 -0.3304 0.2680
vn 0.0247 -0.3304 0.9435
vn -0.8897 -0.3304 0.3151
vn -0.5746 -0.3304 -0.7488
vn 0.5346 -0.3304 -0.7779
vn 0.8026 -0.1256 0.5831
vn -0.3066 -0.1256 0.9435
vn -0.9921 -0.1256 0.0000
vn -0.3066 -0.1256 -0.9435
vn 0.8026 -0.1256 -0.5831
vn 0.4089 0.6617 0.6284
vn -0.4713 0.6617 0.5831
vn -0.7002 0.6617 -0.2680
vn 0.0385 0.6617 -0.7488
vn 0.7240 0.6617 -0.1947
vn 0.2680 0.9435 -0.1947
vn 0.4911 0.7947 -0.3568
vn 0.4089 0.6617 -0.6284
vn -0.1024 0.9435 -0.3151
vn -0.1876 0.7947 -0.5773
vn -0.4713 0.6617 -0.5831
vn -0.3313 0.9435 0.0000
vn -0.6071 0.7947 0.0000
vn -0.7002 0.6617 0.2680
vn -0.1024 0.9435 0.3151
vn -0.1876 0.7947 0.5773
vn 0.0385 0.6617 0.7488
vn 0.2680 0.9435 0.1947
vn 0.4911 0.7947 0.3568
vn 0.7240 0.6617 0.1947
vn 0.8897 0.3304 -0.3151
vn 0.7947 0.1876 -0.5773
vn 0.5746 0.3304 -0.7488
vn -0.0247 0.3304 -0.9435
vn -0.3035 0.1876 -0.9342
vn -0.5346 0.3304 -0.7779
vn -0.9050 0.3304 -0.2680
vn -0.9822 0.1876 0.0000
vn -0.9050 0.3304 0.2680
vn -0.5346 0.3304 0.7779
vn -0.3035 0.1876 0.9342
vn -0.0247 0.3304 0.9435
vn 0.5746 0.3304 0.7488
vn 0.7947 0.1876 0.5773
vn 0.8897 0.3304 0.3151
vn 0.3066 0.1256 -0.9435
vn 0.3035 -0.1876 -0.9342
vn 0.0247 -0.3304 -0.9435
vn -0.8026 0.1256 -0.5831
vn -0.7947 -0.1876 -0.5773
vn -0.8897 -0.3304 -0.3151
vn -0.8026 0.1256 0.5831
vn -0.7947 -0.1876 0.5773
vn -0.5746 -0.3304 0.7488
vn 0.3066 0.1256 0.9435
vn 0.3035 -0.1876 0.9342
vn 0.5346 -0.3304 0.7779
vn 0.9921 0.1256 0.0000
vn 0.9822 -0.1876 0.0000
vn 0.9050 -0.3304 -0.2680
vn 0.4713 -0.6617 -0.5831
vn 0.1876 -0.7947 -0.5773
vn -0.0385 -0.6617 -0.7488
vn -0.4089 -0.6617 -0.6284
vn -0.4911 -0.7947 -0.3568
vn -0.7240 -0.6617 -0.1947
vn -0.7240 -0.6617 0.1947
vn -0.4911 -0.7947 0.3568
vn -0.4089 -0.6617 0.6284
vn 0.7002 -0.6617 -0.2680
vn 0.6071 -0.7947 0.0000
vn 0.3313 -0.9435 0.0000
vn -0.0385 -0.6617 0.7488
vn 0.1876 -0.7947 0.5773
vn 0.4713 -0.6617 0.5831
usemtl None
s off
f 1//1 14//1 13//1
f 2//2 14//2 16//2
f 1//3 13//3 18//3
f 1//4 18//4 20//4
f 1//5 20//5 17//5
f 2//6 16//6 23//6
f 3//7 15//7 25//7
f 4//8 19//8 27//8
f 5//9 21//9 29//9
f 6//10 22//10 31//10
f 2//11 23//11 26//11
f 3//12 25//12 28//12
f 4//13 27//13 30//13
f 5//14 29//14 32//14
f 6//15 31//15 24//15
f 7//16 33//16 38//16
f 8//17 34//17 40//17
f 9//18 35//18 41//18
f 10//19 36//19 42//19
f 11//20 37//20 39//20
f 39//21 42//21 12//21
f 39//22 37//22 42//22
f 37//23 10//23 42//23
f 42//24 41//24 12//24
f 42//25 36//25 41//25
f 36//26 9//26 41//26
f 41//27 40//27 12//27
f 41//28 35//28 40//28
f 35//29 8//29 40//29
f 40//30 38//30 12//30
f 40//31 34//31 38//31
f 34//32 7//32 38//32
f 38//33 39//33 12//33
f 38//34 33//34 39//34
f 33//35 11//35 39//35
f 24//36 37//36 11//36
f 24//37 31//37 37//37
f 31//38 10//38 37//38
f 32//39 36//39 10//39
f 32//40 29//40 36//40
f 29//41 9//41 36//41
f 30//42 35//42 9//42
f 30//43 27//43 35//43
f 27//44 8//44 35//44
f 28//45 34//45 8//45
f 28//46 25//46 34//46
f 25//47 7//47 34//47
f 26//48 33//48 7//48
f 26//49 23//49 33//49
f 23//50 11//50 33//50
f 31//51 32//51 10//51
f 31//52 22//52 32//52
f 22//53 5//53 32//53
f 29//54 30//54 9//54
f 29//55 21//55 30//55
f 21//56 4//56 30//56
f 27//57 28//57 8//57
f 27//58 19//58 28//58
f 19//59 3//59 28//59
f 25//60 26//60 7//60
f 25//61 15//61 26//61
f 15//62 2//62 26//62
f 23//63 24//63 11//63
f 23//64 16//64 24//64
f 16//65 6//65 24//65
f 17//66 22//66 6//66
f 17//67 20//67 22//67
f 20//68 5//68 22//68
f 20//69 21//69 5//69
f 20//70 18//70 21//70
f 18//71 4//71 21//71
f 18//72 19//72 4//72
f 18//73 13//73 19//73
f 13//74 3//74 19//74
f 16//75 17//75 6//75
f 16//76 14//76 17//76
f 14//77 1//77 17//77
f 13//78 15//78 3//78
f 13//79 14//79 15//79
f 14//80 2//80 15//80
o Cylinder
v 0.000000 -1.000000 -1.000000
v 0.000000 1.596678 -0.668459
v 0.130410 1.596678 -0.655615
v 0.195090 -1.000000 -0.980785
v 0.255808 1.596678 -0.617576
v 0.382683 -1.000000 -0.923880
v 0.371376 1.596678 -0.555803
v 0.555570 -1.000000 -0.831470
v 0.472672 1.596678 -0.472672
v 0.707107 -1.000000 -0.707107
v 0.555803 1.596678 -0.371376
v 0.831470 -1.000000 -0.555570
v 0.617576 1.596678 -0.255808
v 0.923880 -1.000000 -0.382683
v 0.655615 1.596678 -0.130410
v 0.980785 -1.000000 -0.195090
v 0.668459 1.596678 0.000000
v 1.000000 -1.000000 -0.000000
v 0.655615 1.596678 0.130410
v 0.980785 -1.000000 0.195090
v 0.617576 1.596678 0.255808
v 0.923880 -1.000000 0.382683
v 0.555803 1.596678 0.371376
v 0.831470 -1.000000 0.555570
v 0.472672 1.596678 0.472672
v 0.707107 -1.000000 0.707107
v 0.371376 1.596678 0.555803
v 0.555570 -1.000000 0.831470
v 0.255808 1.596678 0.617576
v 0.382683 -1.000000 0.923880
v 0.130410 1.596678 0.655615
v 0.195090 -1.000000 0.980785
v 0.000000 1.596678 0.668459
v 0.000000 -1.000000 1.000000
v -0.130410 1.596678 0.655615
v -0.195091 -1.000000 0.980785
v -0.255808 1.596678 0.617575
v -0.382684 -1.000000 0.923879
v -0.371376 1.596678 0.555803
v -0.555571 -1.000000 0.831469
v -0.472672 1.596678 0.472672
v -0.707107 -1.000000 0.707106
v -0.555804 1.596678 0.371375
v -0.831470 -1.000000 0.555570
v -0.617576 1.596678 0.255808
v -0.923880 -1.000000 0.382683
v -0.655615 1.596678 0.130409
v -0.980785 -1.000000 0.195089
v -0.668459 1.596678 -0.000001
v -1.000000 -1.000000 -0.000001
v -0.655615 1.596678 -0.130411
v -0.980785 -1.000000 -0.195091
v -0.617575 1.596678 -0.255809
v -0.923879 -1.000000 -0.382684
v -0.555803 1.596678 -0.371377
v -0.831469 -1.000000 -0.555571
v -0.472671 1.596678 -0.472673
v -0.707106 -1.000000 -0.707108
v -0.371375 1.596678 -0.555804
v -0.555569 -1.000000 -0.831470
v -0.255807 1.596678 -0.617576
v -0.382682 -1.000000 -0.923880
v 0.963111 2.710383 0.191575
v 0.907230 2.710383 0.375787
v -0.130409 1.596678 -0.655615
v -0.195089 -1.000000 -0.980786
v 0.375787 2.710382 0.907230
v 0.545558 2.710382 0.816486
v 0.545558 2.957092 0.816486
v 0.375787 2.957092 0.907230
v -0.375788 2.710382 0.907230
v -0.545559 2.710382 0.816485
v -0.816485 2.710383 -0.545559
v -0.694363 2.710383 -0.694365
v 0.816486 2.710383 -0.545558
v 0.907230 2.710383 -0.375787
v 0.191574 2.710382 0.963111
v -0.963111 2.710383 0.191574
v -0.981979 2.710383 -0.000001
v 0.191575 2.710383 -0.963111
v 0.375787 2.710383 -0.907230
v 0.816486 2.710383 0.545558
v -0.694365 2.710383 0.694364
v -0.545557 2.710383 -0.816487
v 0.963111 2.710383 -0.191575
v 0.000000 2.710382 0.981979
v -0.963111 2.710383 -0.191576
v 0.545558 2.710383 -0.816486
v 0.694364 2.710383 0.694364
v -0.816486 2.710383 0.545558
v -0.375786 2.710383 -0.907231
v 0.981979 2.710383 0.000000
v -0.191575 2.710382 0.963111
v -0.907230 2.710383 -0.375788
v 0.694364 2.710383 -0.694364
v -0.907231 2.710383 0.375786
v -0.191573 2.710383 -0.963111
v 0.000000 2.710383 -0.981979
v -0.191575 2.957092 0.963111
v 0.000000 2.957092 0.981979
v 0.000000 3.107649 0.456929
v -0.089142 3.107649 0.448149
v 0.000000 2.957092 -0.981979
v 0.191575 2.957092 -0.963111
v -0.816485 2.957092 -0.545559
v -0.694363 2.957092 -0.694365
v 0.191574 2.957092 0.963111
v 0.375787 2.957092 -0.907230
v -0.545557 2.957092 -0.816487
v 0.545558 2.957092 -0.816486
v -0.375786 2.957092 -0.907230
v 0.694364 2.957092 -0.694364
v -0.191573 2.957092 -0.963111
v -0.375788 2.957092 0.907230
v 0.816486 2.957092 -0.545557
v -0.545559 2.957092 0.816485
v 0.907230 2.957092 -0.375786
v -0.694365 2.957092 0.694364
v 0.963111 2.957092 -0.191574
v -0.816486 2.957092 0.545558
v 0.981979 2.957092 0.000001
v -0.907231 2.957092 0.375787
v 0.963111 2.957092 0.191576
v -0.963111 2.957092 0.191575
v 0.907231 2.957092 0.375787
v -0.981979 2.957092 -0.000000
v 0.816486 2.957092 0.545558
v -0.963110 2.957092 -0.191575
v 0.694364 2.957092 0.694364
v -0.907230 2.957092 -0.375787
v 0.089142 3.107649 -0.448148
v 0.000000 3.107649 -0.456928
v -0.089142 3.107649 -0.448148
v -0.174858 3.107649 -0.422146
v -0.253855 3.107649 -0.379922
v -0.323097 3.107649 -0.323097
v -0.379922 3.107649 -0.253855
v -0.422146 3.107649 -0.174859
v -0.448148 3.107649 -0.089142
v -0.456928 3.107649 -0.000000
v -0.448149 3.107649 0.089143
v -0.422147 3.107649 0.174859
v -0.379922 3.107649 0.253856
v -0.323097 3.107649 0.323098
v -0.253856 3.107649 0.379923
v -0.174859 3.107649 0.422148
v 0.089142 3.107649 0.448150
v 0.174859 3.107649 0.422148
v 0.253856 3.107649 0.379923
v 0.323097 3.107649 0.323098
v 0.379922 3.107649 0.253857
v 0.422147 3.107649 0.174860
v 0.448149 3.107649 0.089143
v 0.456929 3.107649 0.000001
v 0.448149 3.107649 -0.089141
v 0.422147 3.107649 -0.174858
v 0.379922 3.107649 -0.253855
v 0.323097 3.107649 -0.323096
v 0.253856 3.107649 -0.379921
v 0.174859 3.107649 -0.422146
v 0.010141 3.111533 0.007368
v 0.802806 3.376734 0.583266
v -0.306638 3.376733 0.943752
v 0.802806 3.376734 -0.583265
v -0.992329 3.376734 0.000001
v -0.306638 3.376734 -0.943751
v 0.699583 3.376734 0.508271
v -0.267211 3.376733 0.822407
v 0.699583 3.376734 -0.508270
v -0.864738 3.376734 0.000001
v -0.267211 3.376734 -0.822406
v -0.003872 3.111533 0.011921
v 0.010141 3.111533 -0.007367
v -0.012533 3.111533 0.000001
v -0.003872 3.111533 -0.011920
v 0.077537 3.052810 0.056333
v -0.029615 3.052810 0.091149
v 0.077537 3.052810 -0.056332
v -0.095840 3.052810 0.000001
v -0.029615 3.052810 -0.091148
vn 0.0000 -0.6384 -0.7697
vn 0.0000 -0.0746 -0.9972
vn 0.1945 -0.0746 -0.9781
vn 0.1502 -0.6384 -0.7549
vn 0.3816 -0.0746 -0.9213
vn 0.2945 -0.6384 -0.7111
vn 0.5540 -0.0746 -0.8292
vn 0.4276 -0.6384 -0.6400
vn 0.7051 -0.0746 -0.7051
vn 0.5442 -0.6384 -0.5442
vn 0.8292 -0.0746 -0.5540
vn 0.6400 -0.6384 -0.4276
vn 0.9213 -0.0746 -0.3816
vn 0.7111 -0.6384 -0.2945
vn 0.9781 -0.0746 -0.1945
vn 0.7549 -0.6384 -0.1502
vn 0.9972 -0.0746 0.0000
vn 0.7697 -0.6384 -0.0000
vn 0.9781 -0.0746 0.1945
vn 0.7549 -0.6384 0.1502
vn 0.9213 -0.0746 0.3816
vn 0.7111 -0.6384 0.2945
vn 0.8292 -0.0746 0.5540
vn 0.6400 -0.6384 0.4276
vn 0.7051 -0.0746 0.7051
vn 0.5442 -0.6384 0.5442
vn 0.5540 -0.0746 0.8292
vn 0.4276 -0.6384 0.6400
vn 0.3816 -0.0746 0.9213
vn 0.2945 -0.6384 0.7111
vn 0.1945 -0.0746 0.9781
vn 0.1502 -0.6384 0.7549
vn 0.0000 -0.0746 0.9972
vn 0.0000 -0.6384 0.7697
vn -0.1945 -0.0746 0.9781
vn -0.1502 -0.6384 0.7549
vn -0.3816 -0.0746 0.9213
vn -0.2945 -0.6384 0.7111
vn -0.5540 -0.0746 0.8292
vn -0.4276 -0.6384 0.6400
vn -0.7051 -0.0746 0.7051
vn -0.5442 -0.6384 0.5442
vn -0.8292 -0.0746 0.5540
vn -0.6400 -0.6384 0.4276
vn -0.9213 -0.0746 0.3816
vn -0.7111 -0.6384 0.2945
vn -0.9781 -0.0746 0.1945
vn -0.7549 -0.6384 0.1502
vn -0.9972 -0.0746 0.0000
vn -0.7697 -0.6384 -0.0000
vn -0.9781 -0.0746 -0.1945
vn -0.7549 -0.6384 -0.1502
vn -0.9213 -0.0746 -0.3816
vn -0.7111 -0.6384 -0.2945
vn -0.8292 -0.0746 -0.5540
vn -0.6400 -0.6384 -0.4276
vn -0.7051 -0.0746 -0.7051
vn -0.5442 -0.6384 -0.5442
vn -0.5540 -0.0746 -0.8292
vn -0.4276 -0.6384 -0.6400
vn -0.3816 -0.0746 -0.9213
vn -0.2945 -0.6384 -0.7111
vn 0.9717 -0.1356 0.1933
vn 0.9153 -0.1356 0.3791
vn -0.1945 -0.0746 -0.9781
vn -0.1502 -0.6384 -0.7549
vn 0.3791 -0.1356 0.9153
vn 0.5504 -0.1356 0.8238
vn 0.4508 0.5844 0.6747
vn 0.3105 0.5844 0.7497
vn -0.3791 -0.1356 0.9153
vn -0.5504 -0.1356 0.8238
vn -0.8238 -0.1356 -0.5504
vn -0.7006 -0.1356 -0.7006
vn 0.8238 -0.1356 -0.5504
vn 0.9153 -0.1356 -0.3791
vn 0.1933 -0.1356 0.9717
vn -0.9717 -0.1356 0.1933
vn -0.9908 -0.1356 -0.0000
vn 0.1933 -0.1356 -0.9717
vn 0.3791 -0.1356 -0.9153
vn 0.8238 -0.1356 0.5504
vn -0.7006 -0.1356 0.7006
vn -0.5504 -0.1356 -0.8238
vn 0.9717 -0.1356 -0.1933
vn 0.0000 -0.1356 0.9908
vn -0.9717 -0.1356 -0.1933
vn 0.5504 -0.1356 -0.8238
vn 0.7006 -0.1356 0.7006
vn -0.8238 -0.1356 0.5504
vn -0.3791 -0.1356 -0.9153
vn 0.9908 -0.1356 0.0000
vn -0.1933 -0.1356 0.9717
vn -0.9153 -0.1356 -0.3791
vn 0.7006 -0.1356 -0.7006
vn -0.9153 -0.1356 0.3791
vn -0.1933 -0.1356 -0.9717
vn -0.0000 -0.1356 -0.9908
vn -0.1583 0.5844 0.7959
vn -0.0000 0.5844 0.8115
vn -0.0000 0.9890 0.1477
vn -0.0288 0.9890 0.1448
vn -0.0000 0.5844 -0.8115
vn 0.1583 0.5844 -0.7959
vn -0.6747 0.5844 -0.4508
vn -0.5738 0.5844 -0.5738
vn 0.1583 0.5844 0.7959
vn 0.3105 0.5844 -0.7497
vn -0.4508 0.5844 -0.6747
vn 0.4508 0.5844 -0.6747
vn -0.3105 0.5844 -0.7497
vn 0.5738 0.5844 -0.5738
vn -0.1583 0.5844 -0.7959
vn -0.3105 0.5844 0.7497
vn 0.6747 0.5844 -0.4508
vn -0.4508 0.5844 0.6747
vn 0.7497 0.5844 -0.3105
vn -0.5738 0.5844 0.5738
vn 0.7959 0.5844 -0.1583
vn -0.6747 0.5844 0.4508
vn 0.8115 0.5844 0.0000
vn -0.7497 0.5844 0.3105
vn 0.7959 0.5844 0.1583
vn -0.7959 0.5844 0.1583
vn 0.7497 0.5844 0.3105
vn -0.8115 0.5844 -0.0000
vn 0.6747 0.5844 0.4508
vn -0.7959 0.5844 -0.1583
vn 0.5738 0.5844 0.5738
vn -0.7497 0.5844 -0.3105
vn 0.0288 0.9890 -0.1448
vn -0.0000 0.9890 -0.1477
vn -0.0288 0.9890 -0.1448
vn -0.0565 0.9890 -0.1364
vn -0.0820 0.9890 -0.1228
vn -0.1044 0.9890 -0.1044
vn -0.1228 0.9890 -0.0820
vn -0.1364 0.9890 -0.0565
vn -0.1448 0.9890 -0.0288
vn -0.1477 0.9890 -0.0000
vn -0.1448 0.9890 0.0288
vn -0.1364 0.9890 0.0565
vn -0.1228 0.9890 0.0820
vn -0.1044 0.9890 0.1044
vn -0.0820 0.9890 0.1228
vn -0.0565 0.9890 0.1364
vn 0.0288 0.9890 0.1448
vn 0.0565 0.9890 0.1364
vn 0.0820 0.9890 0.1228
vn 0.1044 0.9890 0.1044
vn 0.1228 0.9890 0.0820
vn 0.1364 0.9890 0.0565
vn 0.1448 0.9890 0.0288
vn 0.1477 0.9890 0.0000
vn 0.1448 0.9890 -0.0288
vn 0.1364 0.9890 -0.0565
vn 0.1228 0.9890 -0.0820
vn 0.1044 0.9890 -0.1044
vn 0.0820 0.9890 -0.1228
vn 0.0565 0.9890 -0.1364
vn 0.0907 0.9959 -0.0000
vn 0.2971 0.9548 0.0000
vn 0.0918 0.9548 0.2826
vn 0.0280 0.9959 0.0863
vn -0.2404 0.9548 0.1747
vn -0.0734 0.9959 0.0533
vn -0.2404 0.9548 -0.1747
vn -0.0734 0.9959 -0.0533
vn 0.0280 0.9959 -0.0863
vn 0.0918 0.9548 -0.2826
vn -0.9913 0.1313 -0.0000
vn -0.3063 0.1313 -0.9428
vn 0.8020 0.1313 -0.5827
vn -0.3063 0.1313 0.9428
vn 0.8020 0.1313 0.5827
vn -0.1050 -0.9405 -0.3232
vn -0.3398 -0.9405 -0.0000
vn 0.2749 -0.9405 -0.1997
vn -0.1050 -0.9405 0.3232
vn 0.2749 -0.9405 0.1997
usemtl None
s 1
f 43//81 44//82 45//83 46//84
f 46//84 45//83 47//85 48//86
f 48//86 47//85 49//87 50//88
f 50//88 49//87 51//89 52//90
f 52//90 51//89 53//91 54//92
f 54//92 53//91 55//93 56//94
f 56//94 55//93 57//95 58//96
f 58//96 57//95 59//97 60//98
f 60//98 59//97 61//99 62//100
f 62//100 61//99 63//101 64//102
f 64//102 63//101 65//103 66//104
f 66//104 65//103 67//105 68//106
f 68//106 67//105 69//107 70//108
f 70//108 69//107 71//109 72//110
f 72//110 71//109 73//111 74//112
f 74//112 73//111 75//113 76//114
f 76//114 75//113 77//115 78//116
f 78//116 77//115 79//117 80//118
f 80//118 79//117 81//119 82//120
f 82//120 81//119 83//121 84//122
f 84//122 83//121 85//123 86//124
f 86//124 85//123 87//125 88//126
f 88//126 87//125 89//127 90//128
f 90//128 89//127 91//129 92//130
f 92//130 91//129 93//131 94//132
f 94//132 93//131 95//133 96//134
f 96//134 95//133 97//135 98//136
f 98//136 97//135 99//137 100//138
f 100//138 99//137 101//139 102//140
f 102//140 101//139 103//141 104//142
f 63//101 61//99 105//143 106//144
f 104//142 103//141 107//145 108//146
f 108//146 107//145 44//82 43//81
f 43//81 46//84 48//86 50//88 52//90 54//92 56//94 58//96 60//98 62//100 64//102 66//104 68//106 70//108 72//110 74//112 76//114 78//116 80//118 82//120 84//122 86//124 88//126 90//128 92//130 94//132 96//134 98//136 100//138 102//140 104//142 108//146
f 109//147 110//148 111//149 112//150
f 81//119 79//117 113//151 114//152
f 99//137 97//135 115//153 116//154
f 55//93 53//91 117//155 118//156
f 73//111 71//109 109//147 119//157
f 91//129 89//127 120//158 121//159
f 47//85 45//83 122//160 123//161
f 65//103 63//101 106//144 124//162
f 83//121 81//119 114//152 125//163
f 101//139 99//137 116//154 126//164
f 57//95 55//93 118//156 127//165
f 75//113 73//111 119//157 128//166
f 93//131 91//129 121//159 129//167
f 49//87 47//85 123//161 130//168
f 67//105 65//103 124//162 131//169
f 85//123 83//121 125//163 132//170
f 103//141 101//139 126//164 133//171
f 59//97 57//95 127//165 134//172
f 77//115 75//113 128//166 135//173
f 95//133 93//131 129//167 136//174
f 51//89 49//87 130//168 137//175
f 69//107 67//105 131//169 110//148
f 87//125 85//123 132//170 138//176
f 107//145 103//141 133//171 139//177
f 61//99 59//97 134//172 105//143
f 79//117 77//115 135//173 113//151
f 97//135 95//133 136//174 115//153
f 53//91 51//89 137//175 117//155
f 71//109 69//107 110//148 109//147
f 89//127 87//125 138//176 120//158
f 45//83 44//82 140//178 122//160
f 44//82 107//145 139//177 140//178
f 141//179 142//180 143//181 144//182
f 122//160 140//178 145//183 146//184
f 116//154 115//153 147//185 148//186
f 119//157 109//147 112//150 149//187
f 123//161 122//160 146//184 150//188
f 126//164 116//154 148//186 151//189
f 128//166 119//157 149//187 142//180
f 130//168 123//161 150//188 152//190
f 133//171 126//164 151//189 153//191
f 135//173 128//166 142//180 141//179
f 137//175 130//168 152//190 154//192
f 139//177 133//171 153//191 155//193
f 113//151 135//173 141//179 156//194
f 117//155 137//175 154//192 157//195
f 140//178 139//177 155//193 145//183
f 114//152 113//151 156//194 158//196
f 118//156 117//155 157//195 159//197
f 125//163 114//152 158//196 160//198
f 127//165 118//156 159//197 161//199
f 132//170 125//163 160//198 162//200
f 134//172 127//165 161//199 163//201
f 138//176 132//170 162//200 164//202
f 105//143 134//172 163//201 165//203
f 120//158 138//176 164//202 166//204
f 106//144 105//143 165//203 167//205
f 121//159 120//158 166//204 168//206
f 124//162 106//144 167//205 169//207
f 129//167 121//159 168//206 170//208
f 131//169 124//162 169//207 171//209
f 136//174 129//167 170//208 172//210
f 110//148 131//169 171//209 111//149
f 115//153 136//174 172//210 147//185
f 173//211 174//212 175//213 176//214 177//215 178//216 179//217 180//218 181//219 182//220 183//221 184//222 185//223 186//224 187//225 188//226 144//182 143//181 189//227 190//228 191//229 192//230 193//231 194//232 195//233 196//234 197//235 198//236 199//237 200//238 201//239 202//240
f 154//192 152//190 201//239 200//238
f 155//193 153//191 176//214 175//213
f 156//194 141//179 144//182 188//226
f 157//195 154//192 200//238 199//237
f 145//183 155//193 175//213 174//212
f 158//196 156//194 188//226 187//225
f 159//197 157//195 199//237 198//236
f 160//198 158//196 187//225 186//224
f 161//199 159//197 198//236 197//235
f 162//200 160//198 186//224 185//223
f 163//201 161//199 197//235 196//234
f 164//202 162//200 185//223 184//222
f 165//203 163//201 196//234 195//233
f 166//204 164//202 184//222 183//221
f 167//205 165//203 195//233 194//232
f 168//206 166//204 183//221 182//220
f 169//207 167//205 194//232 193//231
f 170//208 168//206 182//220 181//219
f 171//209 169//207 193//231 192//230
f 172//210 170//208 181//219 180//218
f 111//149 171//209 192//230 191//229
f 147//185 172//210 180//218 179//217
f 112//150 111//149 191//229 190//228
f 146//184 145//183 174//212 173//211
f 148//186 147//185 179//217 178//216
f 149//187 112//150 190//228 189//227
f 150//188 146//184 173//211 202//240
f 151//189 148//186 178//216 177//215
f 142//180 149//187 189//227 143//181
f 152//190 150//188 202//240 201//239
f 153//191 151//189 177//215 176//214
f 212//241 216//242 217//243 213//244
f 213//244 217//243 215//245 211//246
f 211//246 215//245 203//247 209//248
f 210//249 214//250 216//242 212//241
f 209//248 203//247 214//250 210//249
f 207//251 212//241 213//244 208//252
f 208//252 213//244 211//246 206//253
f 205//254 210//249 212//241 207//251
f 204//255 209//248 210//249 205//254
f 206//253 211//246 209//248 204//255
f 208//252 222//256 221//257 207//251
f 206//253 220//258 222//256 208//252
f 207//251 221//257 219//259 205//254
f 205//254 219//259 218//260 204//255
f 204//255 218//260 220//258 206//253
